REM DIRINDEX 1\2,1\3,1\4,1\5
REM DIRNAME cjc005,folder01,folder02,folder03,folder04
TITLE ""
FILE "P1Q_t_0732-0741.mp3" MP3
  TRACK 01 AUDIO
    TITLE "3:cjc005_3100"
    INDEX 01 00:00:00
  TRACK 02 AUDIO
    TITLE "0:"
    INDEX 01 00:00:68
  TRACK 03 AUDIO
    TITLE "4:cjc005_3101"
    INDEX 01 00:01:19
  TRACK 04 AUDIO
    TITLE "0:"
    INDEX 01 00:02:32
  TRACK 05 AUDIO
    TITLE "5:cjc005_3102"
    INDEX 01 00:02:55
  TRACK 06 AUDIO
    TITLE "0:"
    INDEX 01 00:06:67
  TRACK 07 AUDIO
    TITLE "3:cjc005_3103"
    INDEX 01 00:07:43
  TRACK 08 AUDIO
    TITLE "0:"
    INDEX 01 00:08:40
  TRACK 09 AUDIO
    TITLE "4:cjc005_3104"
    INDEX 01 00:08:70
  TRACK 10 AUDIO
    TITLE "0:"
    INDEX 01 00:09:67
  TRACK 11 AUDIO
    TITLE "5:cjc005_3105"
    INDEX 01 00:10:14
  TRACK 12 AUDIO
    TITLE "0:"
    INDEX 01 00:15:13
  TRACK 13 AUDIO
    TITLE "3:cjc005_3106"
    INDEX 01 00:15:68
  TRACK 14 AUDIO
    TITLE "0:"
    INDEX 01 00:17:10
  TRACK 15 AUDIO
    TITLE "4:cjc005_3107"
    INDEX 01 00:17:37
  TRACK 16 AUDIO
    TITLE "0:"
    INDEX 01 00:18:46
  TRACK 17 AUDIO
    TITLE "5:cjc005_3108"
    INDEX 01 00:18:70
  TRACK 18 AUDIO
    TITLE "0:"
    INDEX 01 00:23:28
  TRACK 19 AUDIO
    TITLE "3:cjc005_3109"
    INDEX 01 00:24:02
  TRACK 20 AUDIO
    TITLE "0:"
    INDEX 01 00:25:19
  TRACK 21 AUDIO
    TITLE "4:cjc005_3110"
    INDEX 01 00:25:46
  TRACK 22 AUDIO
    TITLE "0:"
    INDEX 01 00:26:46
  TRACK 23 AUDIO
    TITLE "5:cjc005_3111"
    INDEX 01 00:26:73
  TRACK 24 AUDIO
    TITLE "0:"
    INDEX 01 00:31:16
  TRACK 25 AUDIO
    TITLE "3:cjc005_3112"
    INDEX 01 00:31:65
  TRACK 26 AUDIO
    TITLE "0:"
    INDEX 01 00:33:01
  TRACK 27 AUDIO
    TITLE "4:cjc005_3113"
    INDEX 01 00:33:24
  TRACK 28 AUDIO
    TITLE "0:"
    INDEX 01 00:34:32
  TRACK 29 AUDIO
    TITLE "5:cjc005_3114"
    INDEX 01 00:34:57
  TRACK 30 AUDIO
    TITLE "0:"
    INDEX 01 00:38:08
  TRACK 31 AUDIO
    TITLE "3:cjc005_3115"
    INDEX 01 00:38:57
  TRACK 32 AUDIO
    TITLE "0:"
    INDEX 01 00:39:64
  TRACK 33 AUDIO
    TITLE "4:cjc005_3116"
    INDEX 01 00:40:15
  TRACK 34 AUDIO
    TITLE "0:"
    INDEX 01 00:41:45
  TRACK 35 AUDIO
    TITLE "5:cjc005_3117"
    INDEX 01 00:41:71
  TRACK 36 AUDIO
    TITLE "0:"
    INDEX 01 00:45:26
  TRACK 37 AUDIO
    TITLE "3:cjc005_3118"
    INDEX 01 00:46:00
  TRACK 38 AUDIO
    TITLE "0:"
    INDEX 01 00:47:11
  TRACK 39 AUDIO
    TITLE "4:cjc005_3119"
    INDEX 01 00:47:38
  TRACK 40 AUDIO
    TITLE "0:"
    INDEX 01 00:48:38
  TRACK 41 AUDIO
    TITLE "5:cjc005_3120"
    INDEX 01 00:48:63
  TRACK 42 AUDIO
    TITLE "0:"
    INDEX 01 00:53:11
  TRACK 43 AUDIO
    TITLE "3:cjc005_3121"
    INDEX 01 00:53:62
  TRACK 44 AUDIO
    TITLE "0:"
    INDEX 01 00:54:58
  TRACK 45 AUDIO
    TITLE "4:cjc005_3122"
    INDEX 01 00:55:14
  TRACK 46 AUDIO
    TITLE "0:"
    INDEX 01 00:56:25
  TRACK 47 AUDIO
    TITLE "5:cjc005_3123"
    INDEX 01 00:56:49
  TRACK 48 AUDIO
    TITLE "0:"
    INDEX 01 01:00:19
  TRACK 49 AUDIO
    TITLE "3:cjc005_3124"
    INDEX 01 01:00:72
  TRACK 50 AUDIO
    TITLE "0:"
    INDEX 01 01:02:10
  TRACK 51 AUDIO
    TITLE "4:cjc005_3125"
    INDEX 01 01:02:38
  TRACK 52 AUDIO
    TITLE "0:"
    INDEX 01 01:03:41
  TRACK 53 AUDIO
    TITLE "5:cjc005_3126"
    INDEX 01 01:03:67
  TRACK 54 AUDIO
    TITLE "0:"
    INDEX 01 01:07:35
  TRACK 55 AUDIO
    TITLE "3:cjc005_3127"
    INDEX 01 01:08:09
  TRACK 56 AUDIO
    TITLE "0:"
    INDEX 01 01:09:40
  TRACK 57 AUDIO
    TITLE "4:cjc005_3128"
    INDEX 01 01:09:59
  TRACK 58 AUDIO
    TITLE "0:"
    INDEX 01 01:11:05
  TRACK 59 AUDIO
    TITLE "5:cjc005_3129"
    INDEX 01 01:11:31
  TRACK 60 AUDIO
    TITLE "0:"
    INDEX 01 01:15:64
